<svg xmlns="http://www.w3.org/2000/svg" viewBox="0 0 337 337" width="337" height="337">
	<style>
		tspan { white-space:pre }
		.shp0 { fill: #ffffff } 
	</style>
	<path id="Layer" class="shp0" d="M314.55,274.89c-21.83,21.84 -50.84,33.87 -81.69,33.87c-63.65,0 -115.44,-51.79 -115.44,-115.44c0,-63.65 51.79,-115.44 115.44,-115.44c30.87,0 59.87,12.02 81.68,33.87c5.12,5.12 13.45,5.13 18.57,0.01c5.14,-5.13 5.14,-13.44 0.02,-18.57c-26.77,-26.81 -62.39,-41.57 -100.27,-41.57c-78.13,0 -141.69,63.57 -141.69,141.7c0,78.13 63.56,141.69 141.7,141.69c37.87,0 73.48,-14.76 100.26,-41.56c5.13,-5.13 5.13,-13.45 0,-18.57c-5.14,-5.14 -13.47,-5.12 -18.57,0z" />
	<path id="Layer" class="shp0" d="M74.36,39.13c0,20.51 -16.68,37.18 -37.17,37.18c-20.5,0 -37.18,-16.68 -37.18,-37.18c0,-20.5 16.68,-37.18 37.18,-37.18c20.49,0 37.17,16.68 37.17,37.18zM48.1,39.13c0,-6.02 -4.89,-10.92 -10.91,-10.92c-6.02,0 -10.92,4.9 -10.92,10.92c0,6.02 4.9,10.92 10.92,10.92c6.02,0 10.91,-4.9 10.91,-10.92z" />
</svg>