<svg xmlns="http://www.w3.org/2000/svg" viewBox="0 0 494 494" width="494" height="494">
	<style>
		tspan { white-space:pre }
		.shp0 { fill: #ffffff } 
	</style>
	<path id="Layer" class="shp0" d="M354.03,112.49l-101.36,-109.63c-1.91,-1.9 -4.19,-2.85 -6.86,-2.85c-2.48,0 -4.66,0.95 -6.57,2.85l-99.93,109.64c-2.47,3.05 -2.95,6.38 -1.43,9.99c1.52,3.62 4.28,5.42 8.28,5.42h63.95v356.32c0,2.66 0.85,4.85 2.57,6.56c1.71,1.71 3.9,2.56 6.57,2.56h54.82c2.67,0 4.86,-0.86 6.56,-2.56c1.71,-1.71 2.57,-3.9 2.57,-6.56v-356.31h63.95c3.81,0 6.56,-1.81 8.27,-5.42c1.53,-3.62 1.05,-6.95 -1.41,-9.99z" />
</svg>