<svg xmlns="http://www.w3.org/2000/svg" viewBox="0 0 494 494" width="494" height="494">
	<style>
		tspan { white-space:pre }
		.shp0 { fill: #ffffff } 
	</style>
	<path id="Layer" class="shp0" d="M355.46,370.87c-1.52,-3.61 -4.29,-5.43 -8.29,-5.43h-63.95v-356.31c0,-2.67 -0.86,-4.86 -2.57,-6.57c-1.7,-1.71 -3.9,-2.57 -6.56,-2.57h-54.82c-2.67,0 -4.85,0.86 -6.57,2.57c-1.71,1.71 -2.57,3.9 -2.57,6.57v356.31h-63.95c-3.81,0 -6.57,1.81 -8.28,5.43c-1.52,3.61 -1.04,6.94 1.43,10l101.35,109.63c1.9,1.9 4.19,2.85 6.85,2.85c2.48,0 4.66,-0.95 6.57,-2.85l99.93,-109.63c2.47,-3.05 2.95,-6.38 1.43,-10z" />
</svg>